# xmcd
#
# Track frame offsets: 
#        150
#        26492
#        48667
#        72693
#        88134
#        103261
#        123565
#        140411
#        163967
#        178487
#        223470
#        234822
#        254687
#
# Disc length: 3605 seconds
#
# Revision: 0
# Processed by: cddbd v1.5.2PL0 Copyright (c) Steve Scherf et al.
# Submitted via: ExactAudioCopy v1.0b3
#
DISCID=d60e130d
DTITLE=Chris Duarte Group - Fan Club CD
DYEAR=2016
DGENRE=Blues
TTITLE0=313
TTITLE1=Thick of It
TTITLE2=Try Your Love On Me
TTITLE3=Wouldya Wanna
TTITLE4=She's Fine
TTITLE5=Rolling Freight Train
TTITLE6=I Can't Help Myself
TTITLE7=Wasting Away
TTITLE8=Pop Song
TTITLE9=Screenwriter's Blues
TTITLE10=You Suck
TTITLE11=Bigger Wheel
TTITLE12=Mary
EXTD=
EXTT0=
EXTT1=
EXTT2=
EXTT3=
EXTT4=
EXTT5=
EXTT6=
EXTT7=
EXTT8=
EXTT9=
EXTT10=
EXTT11=
EXTT12=
PLAYORDER=
